<svg width="335" height="131" viewBox="0 0 335 131" fill="none" xmlns="http://www.w3.org/2000/svg">
<g clip-path="url(#clip0_45_174)">
<path d="M14.4469 77.148V54.3H25.3269V74.768C25.3269 76.944 25.7575 78.6213 26.6189 79.8C27.4802 80.9333 28.7042 81.5 30.2909 81.5C31.2882 81.5 32.2402 81.3413 33.1469 81.024C34.0535 80.6613 34.9375 80.0947 35.7989 79.324C36.6602 78.5533 37.4309 77.556 38.1109 76.332V54.3H48.9909V77.896C48.9909 78.984 49.1495 79.7547 49.4669 80.208C49.8295 80.616 50.4415 80.8653 51.3029 80.956V90C50.3055 90.1813 49.4215 90.3173 48.6509 90.408C47.9255 90.4987 47.2682 90.544 46.6789 90.544C44.7749 90.544 43.2562 90.1587 42.1229 89.388C40.9895 88.572 40.2869 87.4387 40.0149 85.988L39.8109 83.812C38.1789 86.1693 36.1389 87.9147 33.6909 89.048C31.2882 90.136 28.5909 90.68 25.5989 90.68C21.9722 90.68 19.2069 89.524 17.3029 87.212C15.3989 84.9 14.4469 81.5453 14.4469 77.148ZM91.8277 90H80.9477V69.94C80.9477 67.5827 80.4944 65.8827 79.5877 64.84C78.7264 63.752 77.5704 63.208 76.1197 63.208C75.1224 63.208 74.1024 63.48 73.0597 64.024C72.017 64.568 71.065 65.316 70.2037 66.268C69.3877 67.22 68.753 68.308 68.2997 69.532V90H57.4197V54.3H67.2117V60.284C68.1184 58.8787 69.2517 57.6773 70.6117 56.68C71.9717 55.6827 73.5357 54.9347 75.3037 54.436C77.0717 53.892 78.9984 53.62 81.0837 53.62C83.3957 53.62 85.2544 54.0507 86.6597 54.912C88.1104 55.728 89.1984 56.816 89.9237 58.176C90.6944 59.536 91.193 61.0093 91.4197 62.596C91.6917 64.1373 91.8277 65.656 91.8277 67.152V90ZM97.0164 72.116C97.0164 68.6253 97.6964 65.4973 99.0564 62.732C100.416 59.9213 102.275 57.7 104.632 56.068C106.99 54.436 109.71 53.62 112.792 53.62C115.286 53.62 117.552 54.232 119.592 55.456C121.632 56.6347 123.174 58.1987 124.216 60.148V40.36H135.096V77.896C135.096 78.984 135.278 79.7547 135.64 80.208C136.003 80.616 136.592 80.8653 137.408 80.956V90C135.504 90.3627 133.963 90.544 132.784 90.544C130.926 90.544 129.407 90.136 128.228 89.32C127.095 88.504 126.392 87.3707 126.12 85.92L125.916 84.084C124.647 86.3053 122.924 87.96 120.748 89.048C118.572 90.136 116.283 90.68 113.88 90.68C111.432 90.68 109.166 90.2267 107.08 89.32C105.04 88.368 103.25 87.0533 101.708 85.376C100.212 83.6987 99.0564 81.7267 98.2404 79.46C97.4244 77.1933 97.0164 74.7453 97.0164 72.116ZM124.284 76.536V69.056C123.831 67.832 123.174 66.7667 122.312 65.86C121.496 64.9533 120.544 64.228 119.456 63.684C118.414 63.14 117.348 62.868 116.26 62.868C115.082 62.868 113.994 63.1173 112.996 63.616C112.044 64.1147 111.206 64.8173 110.48 65.724C109.755 66.5853 109.188 67.5827 108.78 68.716C108.418 69.8493 108.236 71.0507 108.236 72.32C108.236 73.6347 108.44 74.8587 108.848 75.992C109.302 77.08 109.914 78.0547 110.684 78.916C111.455 79.732 112.362 80.3667 113.404 80.82C114.447 81.2733 115.58 81.5 116.804 81.5C117.575 81.5 118.323 81.3867 119.048 81.16C119.774 80.888 120.454 80.548 121.088 80.14C121.768 79.732 122.38 79.2107 122.924 78.576C123.468 77.9413 123.922 77.2613 124.284 76.536ZM160.617 90.68C157.579 90.68 154.882 90.204 152.525 89.252C150.167 88.2547 148.15 86.9173 146.473 85.24C144.841 83.5627 143.594 81.636 142.733 79.46C141.871 77.2387 141.441 74.9267 141.441 72.524C141.441 69.0787 142.189 65.9507 143.685 63.14C145.226 60.284 147.425 57.9947 150.281 56.272C153.137 54.504 156.582 53.62 160.617 53.62C164.651 53.62 168.074 54.4813 170.885 56.204C173.741 57.9267 175.917 60.1933 177.413 63.004C178.909 65.7693 179.657 68.784 179.657 72.048C179.657 72.6827 179.611 73.3173 179.521 73.952C179.475 74.5413 179.43 75.0627 179.385 75.516H153.001C153.137 77.1027 153.567 78.44 154.293 79.528C155.063 80.616 156.038 81.4547 157.217 82.044C158.395 82.588 159.642 82.86 160.957 82.86C162.589 82.86 164.107 82.4747 165.513 81.704C166.963 80.9333 167.961 79.8907 168.505 78.576L177.753 81.16C176.846 83.0187 175.554 84.6733 173.877 86.124C172.245 87.5293 170.295 88.64 168.029 89.456C165.807 90.272 163.337 90.68 160.617 90.68ZM152.729 68.852H168.233C168.051 67.356 167.621 66.064 166.941 64.976C166.261 63.8427 165.354 62.9813 164.221 62.392C163.087 61.7573 161.841 61.44 160.481 61.44C159.075 61.44 157.806 61.7573 156.673 62.392C155.585 62.9813 154.701 63.8427 154.021 64.976C153.341 66.064 152.91 67.356 152.729 68.852ZM207.232 63.616C204.602 63.616 202.222 64.0467 200.092 64.908C197.961 65.724 196.42 66.948 195.468 68.58V90H184.588V54.3H194.584V61.508C195.808 59.1053 197.394 57.224 199.344 55.864C201.293 54.504 203.333 53.8013 205.464 53.756C205.962 53.756 206.325 53.756 206.552 53.756C206.824 53.756 207.05 53.7787 207.232 53.824V63.616ZM255.81 54.3H266.146L251.39 90H242.414L236.974 75.448L231.534 90H222.558L207.802 54.3H218.07L227.658 79.732L231.058 69.804L224.666 54.3H233.574L236.974 65.044L240.374 54.3H249.214L242.89 69.804L246.29 79.732L255.81 54.3ZM285.394 90.68C282.357 90.68 279.659 90.204 277.302 89.252C274.945 88.2547 272.927 86.9173 271.25 85.24C269.618 83.5627 268.371 81.636 267.51 79.46C266.649 77.2387 266.218 74.9267 266.218 72.524C266.218 69.0787 266.966 65.9507 268.462 63.14C270.003 60.284 272.202 57.9947 275.058 56.272C277.914 54.504 281.359 53.62 285.394 53.62C289.429 53.62 292.851 54.4813 295.662 56.204C298.518 57.9267 300.694 60.1933 302.19 63.004C303.686 65.7693 304.434 68.784 304.434 72.048C304.434 72.6827 304.389 73.3173 304.298 73.952C304.253 74.5413 304.207 75.0627 304.162 75.516H277.778C277.914 77.1027 278.345 78.44 279.07 79.528C279.841 80.616 280.815 81.4547 281.994 82.044C283.173 82.588 284.419 82.86 285.734 82.86C287.366 82.86 288.885 82.4747 290.29 81.704C291.741 80.9333 292.738 79.8907 293.282 78.576L302.53 81.16C301.623 83.0187 300.331 84.6733 298.654 86.124C297.022 87.5293 295.073 88.64 292.806 89.456C290.585 90.272 288.114 90.68 285.394 90.68ZM277.506 68.852H293.01C292.829 67.356 292.398 66.064 291.718 64.976C291.038 63.8427 290.131 62.9813 288.998 62.392C287.865 61.7573 286.618 61.44 285.258 61.44C283.853 61.44 282.583 61.7573 281.45 62.392C280.362 62.9813 279.478 63.8427 278.798 64.976C278.118 66.064 277.687 67.356 277.506 68.852ZM309.365 90V54.3H320.245V90H309.365ZM309.365 50.22V40.36H320.245V50.22H309.365Z" fill="#0017EB"/>
</g>
<defs>
<clipPath id="clip0_45_174">
<rect width="335" height="131" fill="white"/>
</clipPath>
</defs>
</svg>
